<svg width="12" height="14" xmlns="http://www.w3.org/2000/svg" xmlns:xlink="http://www.w3.org/1999/xlink" xmlns:svgjs="http://svgjs.com/svgjs" viewBox="0.076 0 11.849 14" fill="#none"><svg xmlns="http://www.w3.org/2000/svg" width="12" height="14" viewBox="2 1.003 11 12.997"><path paint-order="stroke fill markers" fill-rule="evenodd" d="M10.8 14H4.2C3.058 14 2 13.147 2 11.833c0-1.314.91-5.778 2.053-5.778 1.144 0 1.076 2.167 3.422 2.167 2.347 0 2.279-2.167 3.423-2.167 1.143 0 2.102 4.223 2.102 5.537S11.942 14 10.8 14zM7.5 6.058c-1.418 0-2.567-1.131-2.567-2.528 0-1.396 1.149-2.527 2.566-2.527 1.418 0 2.567 1.131 2.567 2.527 0 1.397-1.15 2.528-2.567 2.528z"/></svg></svg>